{
	"accessors" : 
	[
		{
			"bufferView" : 2,
			"byteOffset" : 0,
			"componentType" : 5126,
			"count" : 9792,
			"max" : 
			[
				1,
				1,
				1,
				1
			],
			"min" : 
			[
				1,
				1,
				1,
				1
			],
			"name" : "accessor_color_m0-PolyPaper21_-305662",
			"type" : "VEC4"
		},
		{
			"bufferView" : 2,
			"byteOffset" : 156672,
			"componentType" : 5126,
			"count" : 9694,
			"max" : 
			[
				1,
				1,
				1,
				1
			],
			"min" : 
			[
				0.1939721554517746,
				0.05284162983298302,
				0,
				1
			],
			"name" : "accessor_color_m1-PolyPaper21_-305490",
			"type" : "VEC4"
		},
		{
			"bufferView" : 2,
			"byteOffset" : 311776,
			"componentType" : 5126,
			"count" : 4488,
			"max" : 
			[
				1,
				1,
				1,
				1
			],
			"min" : 
			[
				1,
				1,
				1,
				1
			],
			"name" : "accessor_color_m2-PolyPaper21_-305740",
			"type" : "VEC4"
		},
		{
			"bufferView" : 2,
			"byteOffset" : 383584,
			"componentType" : 5126,
			"count" : 9792,
			"max" : 
			[
				1,
				1,
				1,
				1
			],
			"min" : 
			[
				1,
				1,
				1,
				1
			],
			"name" : "accessor_color_m3-PolyPaper21_-305484",
			"type" : "VEC4"
		},
		{
			"bufferView" : 2,
			"byteOffset" : 540256,
			"componentType" : 5126,
			"count" : 9792,
			"max" : 
			[
				1,
				1,
				1,
				1
			],
			"min" : 
			[
				1,
				1,
				1,
				1
			],
			"name" : "accessor_color_m4-PolyPaper21_-305544",
			"type" : "VEC4"
		},
		{
			"bufferView" : 0,
			"byteOffset" : 0,
			"componentType" : 5123,
			"count" : 13824,
			"max" : 
			[
				9791
			],
			"min" : 
			[
				0
			],
			"name" : "accessor_indices_0_m0-PolyPaper21_-305662",
			"type" : "SCALAR"
		},
		{
			"bufferView" : 0,
			"byteOffset" : 27648,
			"componentType" : 5123,
			"count" : 13674,
			"max" : 
			[
				9693
			],
			"min" : 
			[
				0
			],
			"name" : "accessor_indices_0_m1-PolyPaper21_-305490",
			"type" : "SCALAR"
		},
		{
			"bufferView" : 0,
			"byteOffset" : 54996,
			"componentType" : 5123,
			"count" : 6336,
			"max" : 
			[
				4487
			],
			"min" : 
			[
				0
			],
			"name" : "accessor_indices_0_m2-PolyPaper21_-305740",
			"type" : "SCALAR"
		},
		{
			"bufferView" : 0,
			"byteOffset" : 67668,
			"componentType" : 5123,
			"count" : 13824,
			"max" : 
			[
				9791
			],
			"min" : 
			[
				0
			],
			"name" : "accessor_indices_0_m3-PolyPaper21_-305484",
			"type" : "SCALAR"
		},
		{
			"bufferView" : 0,
			"byteOffset" : 95316,
			"componentType" : 5123,
			"count" : 13824,
			"max" : 
			[
				9791
			],
			"min" : 
			[
				0
			],
			"name" : "accessor_indices_0_m4-PolyPaper21_-305544",
			"type" : "SCALAR"
		},
		{
			"bufferView" : 1,
			"byteOffset" : 117504,
			"componentType" : 5126,
			"count" : 9792,
			"max" : 
			[
				0.9996488,
				0.9991511,
				0.9990968
			],
			"min" : 
			[
				-0.9996488,
				-0.999151,
				-0.9990968
			],
			"name" : "accessor_normal_m0-PolyPaper21_-305662",
			"type" : "VEC3"
		},
		{
			"bufferView" : 1,
			"byteOffset" : 351336,
			"componentType" : 5126,
			"count" : 9694,
			"max" : 
			[
				0.9999822,
				0.9996474,
				0.9989122
			],
			"min" : 
			[
				-0.9998253,
				-0.9996475,
				-0.9989123
			],
			"name" : "accessor_normal_m1-PolyPaper21_-305490",
			"type" : "VEC3"
		},
		{
			"bufferView" : 1,
			"byteOffset" : 521520,
			"componentType" : 5126,
			"count" : 4488,
			"max" : 
			[
				0.9988613,
				0.9999881,
				0.9993004
			],
			"min" : 
			[
				-0.9988612,
				-0.9999881,
				-0.9993004
			],
			"name" : "accessor_normal_m2-PolyPaper21_-305740",
			"type" : "VEC3"
		},
		{
			"bufferView" : 1,
			"byteOffset" : 692880,
			"componentType" : 5126,
			"count" : 9792,
			"max" : 
			[
				0.9995701,
				0.9990958,
				0.9995237
			],
			"min" : 
			[
				-0.9995701,
				-0.9990958,
				-0.9995236
			],
			"name" : "accessor_normal_m3-PolyPaper21_-305484",
			"type" : "VEC3"
		},
		{
			"bufferView" : 1,
			"byteOffset" : 927888,
			"componentType" : 5126,
			"count" : 9792,
			"max" : 
			[
				0.9989832,
				0.999912,
				0.9992303
			],
			"min" : 
			[
				-0.9989831,
				-0.999912,
				-0.9992303
			],
			"name" : "accessor_normal_m4-PolyPaper21_-305544",
			"type" : "VEC3"
		},
		{
			"bufferView" : 1,
			"byteOffset" : 0,
			"componentType" : 5126,
			"count" : 9792,
			"max" : 
			[
				0.1372224,
				1.334187,
				-0.3092335
			],
			"min" : 
			[
				-0.3538143,
				0.7250569,
				-0.937971
			],
			"name" : "accessor_position_m0-PolyPaper21_-305662",
			"type" : "VEC3"
		},
		{
			"bufferView" : 1,
			"byteOffset" : 235008,
			"componentType" : 5126,
			"count" : 9694,
			"max" : 
			[
				0.0435386,
				2.065338,
				-0.4049337
			],
			"min" : 
			[
				-0.3062682,
				0.7218779,
				-0.8083605
			],
			"name" : "accessor_position_m1-PolyPaper21_-305490",
			"type" : "VEC3"
		},
		{
			"bufferView" : 1,
			"byteOffset" : 467664,
			"componentType" : 5126,
			"count" : 4488,
			"max" : 
			[
				0.02888793,
				1.423393,
				-0.3234087
			],
			"min" : 
			[
				-0.2043268,
				0.7549781,
				-0.9026533
			],
			"name" : "accessor_position_m2-PolyPaper21_-305740",
			"type" : "VEC3"
		},
		{
			"bufferView" : 1,
			"byteOffset" : 575376,
			"componentType" : 5126,
			"count" : 9792,
			"max" : 
			[
				0.0108399,
				1.22898,
				-0.3015119
			],
			"min" : 
			[
				-0.3535486,
				0.7167886,
				-0.9320812000000001
			],
			"name" : "accessor_position_m3-PolyPaper21_-305484",
			"type" : "VEC3"
		},
		{
			"bufferView" : 1,
			"byteOffset" : 810384,
			"componentType" : 5126,
			"count" : 9792,
			"max" : 
			[
				0.09336525,
				1.283381,
				-0.3440884
			],
			"min" : 
			[
				-0.27306,
				0.764242,
				-0.9006948
			],
			"name" : "accessor_position_m4-PolyPaper21_-305544",
			"type" : "VEC3"
		}
	],
	"asset" : 
	{
		"copyright" : "Unknown",
		"generator" : "glTF 1-to-2 Upgrader for Google Blocks",
		"version" : "2.0"
	},
	"bufferViews" : 
	[
		{
			"buffer" : 0,
			"byteLength" : 122964,
			"byteOffset" : 0,
			"name" : "ushortBufferView",
			"target" : 34963
		},
		{
			"buffer" : 0,
			"byteLength" : 1045392,
			"byteOffset" : 122964,
			"byteStride" : 12,
			"name" : "vec3BufferView",
			"target" : 34962
		},
		{
			"buffer" : 0,
			"byteLength" : 696928,
			"byteOffset" : 1168356,
			"byteStride" : 16,
			"name" : "vec4BufferView",
			"target" : 34962
		}
	],
	"buffers" : 
	[
		{
			"byteLength" : 1865284,
			"name" : "model",
			"uri" : "model.bin"
		}
	],
	"materials" : 
	[
		{
			"alphaMode" : "OPAQUE",
			"doubleSided" : false,
			"name" : "BlocksPaper",
			"pbrMetallicRoughness" : 
			{
				"baseColorFactor" : 
				[
					1,
					1,
					1,
					1
				],
				"metallicFactor" : 0,
				"roughnessFactor" : 0.6
			}
		},
		{
			"alphaMode" : "BLEND",
			"doubleSided" : false,
			"name" : "BlocksGlass",
			"pbrMetallicRoughness" : 
			{
				"baseColorFactor" : 
				[
					0.2,
					0.2,
					1,
					0.3
				],
				"metallicFactor" : 1,
				"roughnessFactor" : 0.4
			}
		},
		{
			"alphaMode" : "OPAQUE",
			"doubleSided" : true,
			"name" : "BlocksGem",
			"pbrMetallicRoughness" : 
			{
				"baseColorFactor" : 
				[
					1,
					0.4,
					1,
					1
				],
				"metallicFactor" : 0,
				"roughnessFactor" : 0.1
			}
		}
	],
	"meshes" : 
	[
		{
			"name" : "mesh_m0-PolyPaper21_-305662",
			"primitives" : 
			[
				{
					"attributes" : 
					{
						"COLOR_0" : 0,
						"NORMAL" : 10,
						"POSITION" : 15
					},
					"indices" : 5,
					"material" : 0,
					"mode" : 4
				}
			]
		},
		{
			"name" : "mesh_m1-PolyPaper21_-305490",
			"primitives" : 
			[
				{
					"attributes" : 
					{
						"COLOR_0" : 1,
						"NORMAL" : 11,
						"POSITION" : 16
					},
					"indices" : 6,
					"material" : 0,
					"mode" : 4
				}
			]
		},
		{
			"name" : "mesh_m2-PolyPaper21_-305740",
			"primitives" : 
			[
				{
					"attributes" : 
					{
						"COLOR_0" : 2,
						"NORMAL" : 12,
						"POSITION" : 17
					},
					"indices" : 7,
					"material" : 0,
					"mode" : 4
				}
			]
		},
		{
			"name" : "mesh_m3-PolyPaper21_-305484",
			"primitives" : 
			[
				{
					"attributes" : 
					{
						"COLOR_0" : 3,
						"NORMAL" : 13,
						"POSITION" : 18
					},
					"indices" : 8,
					"material" : 0,
					"mode" : 4
				}
			]
		},
		{
			"name" : "mesh_m4-PolyPaper21_-305544",
			"primitives" : 
			[
				{
					"attributes" : 
					{
						"COLOR_0" : 4,
						"NORMAL" : 14,
						"POSITION" : 19
					},
					"indices" : 9,
					"material" : 0,
					"mode" : 4
				}
			]
		}
	],
	"nodes" : 
	[
		{
			"matrix" : 
			[
				1,
				0,
				0,
				0,
				0,
				1,
				0,
				0,
				0,
				0,
				1,
				0,
				0,
				0,
				0,
				1
			],
			"mesh" : 0,
			"name" : "node_MeshObject-1054288128-PolyPaper21"
		},
		{
			"matrix" : 
			[
				1,
				0,
				0,
				0,
				0,
				1,
				0,
				0,
				0,
				0,
				1,
				0,
				0,
				0,
				0,
				1
			],
			"mesh" : 3,
			"name" : "node_MeshObject-583921856-PolyPaper21"
		},
		{
			"matrix" : 
			[
				1,
				0,
				0,
				0,
				0,
				1,
				0,
				0,
				0,
				0,
				1,
				0,
				0,
				0,
				0,
				1
			],
			"mesh" : 2,
			"name" : "node_MeshObject287427648-PolyPaper21"
		},
		{
			"matrix" : 
			[
				1,
				0,
				0,
				0,
				0,
				1,
				0,
				0,
				0,
				0,
				1,
				0,
				0,
				0,
				0,
				1
			],
			"mesh" : 4,
			"name" : "node_MeshObject817509056-PolyPaper21"
		},
		{
			"matrix" : 
			[
				1,
				0,
				0,
				0,
				0,
				1,
				0,
				0,
				0,
				0,
				1,
				0,
				0,
				0,
				0,
				1
			],
			"mesh" : 1,
			"name" : "node_MeshObject972238336-PolyPaper21"
		}
	],
	"scene" : 0,
	"scenes" : 
	[
		{
			"extras" : {},
			"name" : "defaultScene",
			"nodes" : 
			[
				0,
				4,
				2,
				1,
				3
			]
		}
	]
}